<svg width="439" height="41" viewBox="0 0 439 41" fill="none" xmlns="http://www.w3.org/2000/svg">
<path d="M13.35 40.65C6.55 40.65 0.4 35.4 0.4 26.25C0.4 17.1 6.55 11.8 13.35 11.8C20.15 11.8 26.3 17.1 26.3 26.25C26.3 35.4 20.15 40.65 13.35 40.65ZM13.35 35.95C17.7 35.95 20.4 32.1 20.4 26.25C20.4 20.45 17.7 16.55 13.35 16.55C9.05 16.55 6.35 20.45 6.35 26.25C6.35 32.1 9.05 35.95 13.35 35.95ZM33.0629 40V12.5H37.7629L38.2129 16.3H38.3629C40.9129 13.85 43.7129 11.8 47.4629 11.8C53.3129 11.8 55.9129 15.7 55.9129 22.7V40H50.1629V23.4C50.1629 18.65 48.7629 16.75 45.5129 16.75C42.9629 16.75 41.2129 18.05 38.8129 20.5V40H33.0629ZM75.7141 40.65C68.2641 40.65 62.3141 35.35 62.3141 26.25C62.3141 17.35 68.4641 11.8 74.8641 11.8C82.1641 11.8 86.1141 17.05 86.1141 24.8C86.1141 25.95 85.9641 27.05 85.8141 27.75H67.9641C68.4141 33 71.7141 36.15 76.4641 36.15C78.9141 36.15 81.0141 35.4 83.0141 34.1L85.0141 37.75C82.4641 39.45 79.3141 40.65 75.7141 40.65ZM67.9141 23.75H81.1141C81.1141 19.05 78.9641 16.3 74.9641 16.3C71.5141 16.3 68.4641 18.95 67.9141 23.75ZM111.216 40.65C107.416 40.65 103.566 39.05 100.866 36.85L103.566 33.15C106.016 35.05 108.416 36.3 111.366 36.3C114.666 36.3 116.216 34.7 116.216 32.6C116.216 30.1 113.116 29 110.166 27.85C106.466 26.45 102.416 24.5 102.416 19.85C102.416 15.25 106.116 11.8 112.216 11.8C115.866 11.8 118.916 13.3 121.116 15.05L118.416 18.6C116.516 17.2 114.566 16.2 112.316 16.2C109.266 16.2 107.866 17.7 107.866 19.6C107.866 21.95 110.566 22.85 113.566 23.95C117.416 25.4 121.666 27.1 121.666 32.3C121.666 36.9 118.016 40.65 111.216 40.65ZM135.916 40.65C129.716 40.65 127.566 36.8 127.566 31V17.1H123.566V12.8L127.866 12.5L128.516 4.9H133.316V12.5H140.466V17.1H133.316V31.05C133.316 34.35 134.466 36.05 137.316 36.05C138.266 36.05 139.466 35.75 140.266 35.4L141.316 39.65C139.766 40.15 137.916 40.65 135.916 40.65ZM156.661 40.65C149.861 40.65 143.711 35.4 143.711 26.25C143.711 17.1 149.861 11.8 156.661 11.8C163.461 11.8 169.611 17.1 169.611 26.25C169.611 35.4 163.461 40.65 156.661 40.65ZM156.661 35.95C161.011 35.95 163.711 32.1 163.711 26.25C163.711 20.45 161.011 16.55 156.661 16.55C152.361 16.55 149.661 20.45 149.661 26.25C149.661 32.1 152.361 35.95 156.661 35.95ZM176.373 40V12.5H181.073L181.523 16.3H181.673C184.223 13.85 187.023 11.8 190.773 11.8C196.623 11.8 199.223 15.7 199.223 22.7V40H193.473V23.4C193.473 18.65 192.073 16.75 188.823 16.75C186.273 16.75 184.523 18.05 182.123 20.5V40H176.373ZM219.025 40.65C211.575 40.65 205.625 35.35 205.625 26.25C205.625 17.35 211.775 11.8 218.175 11.8C225.475 11.8 229.425 17.05 229.425 24.8C229.425 25.95 229.275 27.05 229.125 27.75H211.275C211.725 33 215.025 36.15 219.775 36.15C222.225 36.15 224.325 35.4 226.325 34.1L228.325 37.75C225.775 39.45 222.625 40.65 219.025 40.65ZM211.225 23.75H224.425C224.425 19.05 222.275 16.3 218.275 16.3C214.825 16.3 211.775 18.95 211.225 23.75ZM256.327 40.65C250.127 40.65 247.977 36.8 247.977 31V17.1H243.977V12.8L248.277 12.5L248.927 4.9H253.727V12.5H260.877V17.1H253.727V31.05C253.727 34.35 254.877 36.05 257.727 36.05C258.677 36.05 259.877 35.75 260.677 35.4L261.727 39.65C260.177 40.15 258.327 40.65 256.327 40.65ZM271.351 40L263.901 12.5H269.701L273.351 27.35C273.901 30.05 274.351 32.55 274.851 35.2H275.051C275.651 32.55 276.201 30 276.851 27.35L280.751 12.5H286.051L290.001 27.35C290.651 30.05 291.201 32.55 291.851 35.2H292.051C292.601 32.55 293.051 30.05 293.651 27.35L297.201 12.5H302.601L295.501 40H288.601L285.101 26.4C284.451 23.8 283.951 21.3 283.351 18.45H283.101C282.551 21.3 282.051 23.85 281.351 26.45L278.001 40H271.351ZM319.014 40.65C312.214 40.65 306.064 35.4 306.064 26.25C306.064 17.1 312.214 11.8 319.014 11.8C325.814 11.8 331.964 17.1 331.964 26.25C331.964 35.4 325.814 40.65 319.014 40.65ZM319.014 35.95C323.364 35.95 326.064 32.1 326.064 26.25C326.064 20.45 323.364 16.55 319.014 16.55C314.714 16.55 312.014 20.45 312.014 26.25C312.014 32.1 314.714 35.95 319.014 35.95ZM362.757 40.65C360.257 40.65 357.507 39.35 355.157 37.15H355.007L354.457 40H349.957V0.149997H355.707V10.7L355.507 15.4C357.857 13.35 360.807 11.8 363.707 11.8C370.657 11.8 374.607 17.35 374.607 25.8C374.607 35.25 368.957 40.65 362.757 40.65ZM361.657 35.9C365.657 35.9 368.657 32.35 368.657 25.9C368.657 20.15 366.807 16.6 362.207 16.6C360.057 16.6 357.957 17.7 355.707 19.95V33.4C357.807 35.25 359.957 35.9 361.657 35.9ZM381.403 40V12.5H387.153V40H381.403ZM384.253 7.35C382.153 7.35 380.703 6 380.703 3.9C380.703 1.85 382.153 0.499999 384.253 0.499999C386.353 0.499999 387.853 1.85 387.853 3.9C387.853 6 386.353 7.35 384.253 7.35ZM395.758 40V12.5H400.458L400.908 17.45H401.058C403.008 13.9 405.908 11.8 408.858 11.8C410.208 11.8 411.108 12 411.958 12.4L410.908 17.4C409.958 17.1 409.258 16.95 408.158 16.95C405.908 16.95 403.208 18.5 401.508 22.85V40H395.758ZM425.18 40.65C418.28 40.65 413.83 35.4 413.83 26.25C413.83 17.35 419.48 11.8 425.63 11.8C428.78 11.8 430.78 13 433.03 14.9L432.78 10.35V0.149997H438.53V40H433.83L433.38 36.9H433.18C431.13 39 428.28 40.65 425.18 40.65ZM426.53 35.9C428.83 35.9 430.78 34.85 432.78 32.55V19.1C430.73 17.25 428.78 16.6 426.73 16.6C422.88 16.6 419.78 20.25 419.78 26.2C419.78 32.45 422.23 35.9 426.53 35.9Z" fill="black"/>
</svg>
